<svg width="189" height="189" viewBox="0 0 189 189" fill="none" xmlns="http://www.w3.org/2000/svg">
<g clip-path="url(#clip0_4863_3433)">
<path d="M149.625 0H39.375C17.6288 0 0 17.6288 0 39.375V149.625C0 171.371 17.6288 189 39.375 189H149.625C171.371 189 189 171.371 189 149.625V39.375C189 17.6288 171.371 0 149.625 0Z" fill="#E2263C"/>
<path d="M105.617 36.0025C103.512 35.5794 101.322 35.1262 99.189 34.9146C96.8001 34.6729 94.6671 34.552 92.733 34.552C84.5706 34.552 80.2764 36.5766 77.1193 38.6617C74.9296 40.1121 73.7066 41.8348 73.422 43.7685C73.1377 45.8234 73.9626 48.1501 75.8396 50.4469C79.4515 54.9191 84.3717 57.2457 88.2679 58.8172C91.2825 60.026 94.3824 61.1439 97.3974 62.2015C103.37 64.347 109.57 66.5528 115.315 69.5748C120.576 68.7889 125.809 67.399 130.843 65.4952C130.246 65.1932 129.62 64.8908 128.966 64.5888C128.739 64.4982 128.511 64.3773 128.312 64.2864C122.226 61.5065 115.77 59.5122 109.513 57.5477C105.645 56.3393 101.635 55.1002 97.7388 53.6799C97.369 53.5591 96.9993 53.4083 96.6579 53.2874C93.6146 52.1994 90.4579 51.0812 87.8982 48.3013L86.9311 47.2437L87.8982 46.1861C89.4055 44.554 91.0265 44.9166 92.0219 45.1285C92.1357 45.1584 92.2779 45.1887 92.3916 45.219C106.1 47.7571 117.192 50.9001 127.345 55.1305C127.516 55.1908 127.686 55.2817 127.885 55.3723C130.047 56.309 130.701 56.3393 130.872 56.1578C130.872 56.1578 131.696 55.0699 129.649 49.631C125.809 39.4774 116.651 33.7663 112.13 31.5C112.67 32.195 113.267 33.2224 113.239 34.2801C113.21 34.7333 113.096 35.1866 112.869 35.6096C111.76 37.604 109.826 36.9695 109.001 36.7277C108.774 36.6673 108.574 36.5766 108.404 36.5766C107.437 36.3953 106.498 36.1838 105.617 36.0025Z" fill="white"/>
<path d="M121.131 117.725C119.027 117.452 116.865 117.09 114.704 116.697C95.4497 113.192 81.1443 106.453 72.5838 102.434C61.4919 97.2066 50.713 90.8609 40.503 83.5781C39.3938 87.3857 38.7112 92.5529 40.3609 98.0224C41.1854 100.772 42.3229 102.706 43.0912 103.915C45.9919 108.478 50.0873 112.436 55.6333 115.942C60.0413 118.752 64.734 121.29 69.5689 123.466C75.7122 126.246 82.3102 128.573 89.1926 130.356C99.0899 132.924 109.329 135.583 119.652 135.825C120.363 135.856 121.075 135.856 121.757 135.825C122.553 135.825 123.35 135.856 124.117 135.856C125.796 135.916 127.417 135.946 128.981 135.795C134.299 135.251 138.394 133.559 141.438 130.688L141.551 130.567C142.774 129.419 144.026 128.24 144.85 126.246C145.988 123.526 145.761 120.776 145.363 118.933C137.285 119.205 129.123 118.812 121.131 117.725Z" fill="white"/>
<path d="M133.802 67.5507C127.802 70.0286 121.545 71.7509 115.231 72.6577C115.089 72.6876 114.918 72.7179 114.776 72.7179C114.463 72.7786 114.15 72.8085 113.837 72.8388C101.58 74.3799 89.0944 72.9294 76.7512 68.5178C69.186 65.8281 61.8485 62.0812 54.8524 57.3672C54.1129 57.8204 53.4018 58.3342 52.719 58.9083C52.2926 59.271 51.2117 60.4495 49.8183 62.202C47.5715 65.0122 46.6045 67.3692 46.8604 69.4242C47.1164 71.5394 48.7091 73.6547 51.6953 75.9211C54.9945 78.4293 58.7769 80.5445 63.2703 82.418C68.1906 84.4729 73.3952 86.0141 78.4577 87.4946C79.4814 87.7966 80.4768 88.099 81.4722 88.401C88.9235 90.6371 96.4603 90.8789 104.424 91.1509C108.86 91.3021 113.439 91.4529 118.046 91.9668C118.36 91.9365 118.672 91.9065 118.985 91.8762C124.246 91.3321 128.598 90.0327 132.21 87.9478C135.594 85.9838 137.784 83.2641 138.524 80.061C139.348 76.4349 138.41 72.325 136.106 69.5754C135.509 68.8198 134.713 68.1248 133.802 67.5507Z" fill="white"/>
<path d="M123.151 96.9082C121.871 96.0923 120.534 95.4576 119.056 94.9745C118.771 95.0044 118.487 95.0347 118.202 95.065H118.06L117.918 95.0347C113.396 94.5209 108.817 94.3701 104.38 94.2189C96.5877 93.9468 88.5107 93.6751 80.7464 91.348C79.8648 91.0763 78.9832 90.8346 78.1016 90.5625C80.0924 91.5898 82.0832 92.6175 84.0456 93.6145C92.4069 97.9055 101.053 102.317 109.073 107.726C109.329 107.908 109.585 108.059 109.813 108.24C112.031 109.721 114.306 111.232 115.728 113.8C117.634 114.132 119.539 114.435 121.416 114.677C129.01 115.704 136.717 116.097 144.368 115.885C143.913 114.858 143.259 113.8 142.377 112.652C137.087 105.732 129.692 101.018 123.151 96.9082Z" fill="white"/>
<path d="M94.8469 159.849C101.786 158.036 107.389 155.074 112.025 150.783C113.447 149.484 113.361 148.789 113.163 148.215C112.992 147.701 112.707 147.58 111.342 147.429C111.2 147.429 111.086 147.399 110.944 147.399C109.494 147.217 108.015 147.067 106.593 146.915C103.066 146.553 99.4259 146.16 95.8707 145.495C94.2213 145.163 92.4864 144.891 90.837 144.619C85.1489 143.682 79.2332 142.715 73.2608 140.026L67.5443 137.457L73.7443 137.125C80.0581 136.793 86.3435 136.853 92.4297 136.883C96.2404 136.913 99.9377 136.943 103.607 136.883C98.5159 135.856 93.4818 134.556 88.5615 133.257C81.6508 131.474 74.9956 129.147 68.7957 126.367C66.6344 126.579 64.416 127.153 62.2259 128.089C59.1543 129.389 57.1635 131.474 56.6516 133.952C56.1114 136.46 57.1068 139.301 59.4102 141.96C68.3405 152.174 81.4799 154.621 82.9588 154.863C85.4332 155.286 87.9358 155.497 90.4102 155.497H94.1929L87.7653 161.45C89.5286 161.329 91.2351 160.846 93.0266 160.332C93.6239 160.181 94.2496 160 94.8469 159.849Z" fill="white"/>
<path d="M57.9219 79.3047C58.1211 79.335 58.377 79.3047 58.4054 79.6071C58.2633 79.5165 58.0928 79.4256 57.9219 79.3047Z" fill="white"/>
</g>
<defs>
<clipPath id="clip0_4863_3433">
<rect width="189" height="189" fill="white"/>
</clipPath>
</defs>
</svg>
